<svg width="100" height="50" viewBox="0 0 150 50" fill="none" xmlns="http://www.w3.org/2000/svg" xmlns:xlink="http://www.w3.org/1999/xlink">
            <path d="M51.898 46.941h-5.88V14.192h5.119l0.355 2.28h0.254a9.389 9.389 0 0 1 3.396 -2.076c1.318 -0.474 2.805 -0.707 4.461 -0.707 3.38 0 5.78 1.014 7.199 3.043 1.455 1.994 2.179 5.306 2.179 9.934 0 4.596 -0.897 7.925 -2.685 9.989 -1.791 2.028 -4.731 3.043 -8.822 3.043a18.012 18.012 0 0 1 -3.144 -0.254 10.745 10.745 0 0 1 -2.433 -0.609v8.111Zm11.204 -20.279c0 -2.94 -0.389 -4.95 -1.165 -6.03 -0.744 -1.115 -2.214 -1.675 -4.412 -1.675 -1.047 0 -2.045 0.12 -2.99 0.355 -0.948 0.237 -1.826 0.575 -2.637 1.016v13.078c0.609 0.27 1.3 0.474 2.08 0.609 0.81 0.135 1.722 0.201 2.736 0.201 2.601 0 4.308 -0.506 5.119 -1.519 0.844 -1.047 1.264 -3.059 1.264 -6.032Zm16.122 -16.02h-6.236V5.522h6.236V10.644Zm-0.152 28.591h-5.88V14.192h5.88v25.044Zm20.919 -5.476v5.021c-0.575 0.237 -1.386 0.44 -2.433 0.609a14.27 14.27 0 0 1 -2.788 0.302c-3.212 0 -5.507 -0.693 -6.897 -2.08 -1.385 -1.419 -2.076 -3.767 -2.076 -7.047V19.11h-3.345V14.192h3.498l0.813 -5.982h4.918v5.982h8.01V19.11h-8.01v11.253c0 1.487 0.32 2.502 0.963 3.043 0.643 0.54 1.791 0.81 3.449 0.81 0.575 0 1.251 -0.033 2.028 -0.101 0.777 -0.101 1.404 -0.22 1.876 -0.355Zm20.94 -0.861v4.918c-0.876 0.509 -2.196 0.948 -3.954 1.32 -1.724 0.37 -3.514 0.556 -5.373 0.556 -3.583 0 -6.101 -0.963 -7.554 -2.889 -1.454 -1.926 -2.179 -5.309 -2.179 -10.14 0 -4.766 0.927 -8.111 2.788 -10.035 1.891 -1.96 5.136 -2.94 9.732 -2.94 1.115 0 2.112 0.033 2.99 0.101 0.912 0.033 1.876 0.117 2.893 0.254v5.221a82.517 82.517 0 0 0 -3.449 -0.201c-0.98 -0.069 -1.791 -0.104 -2.433 -0.104 -2.772 0 -4.579 0.493 -5.425 1.472 -0.813 0.98 -1.218 3.059 -1.218 6.236 0 3.078 0.32 5.103 0.963 6.086 0.676 0.98 2.061 1.47 4.156 1.47 1.385 0 2.805 -0.117 4.258 -0.354 1.487 -0.271 2.754 -0.591 3.801 -0.963Zm9.561 6.336h-5.88V5.522h5.88V16.067a20.72 20.72 0 0 1 4.26 -1.772 14.859 14.859 0 0 1 4.106 -0.609c2.805 0 4.901 0.693 6.285 2.076 1.42 1.353 2.127 3.396 2.127 6.134v17.337H141.39v-16.578c0 -1.285 -0.355 -2.214 -1.067 -2.788 -0.676 -0.609 -1.772 -0.912 -3.294 -0.912 -1.047 0 -2.147 0.12 -3.297 0.355a18.98 18.98 0 0 0 -3.244 0.963v18.96Z" fill="#F8B500"></path>
            <path fill-rule="evenodd" clip-rule="evenodd" d="M5.75 18.404a0.882 0.882 0 0 0 -0.887 0.887V39.965l2.487 -2.487c0.456 -0.456 1.075 -0.714 1.719 -0.714h19.907a0.885 0.885 0 0 0 0.885 -0.887V19.29a0.882 0.882 0 0 0 -0.885 -0.887H5.75ZM1.683 15.226a5.754 5.754 0 0 1 4.066 -1.684h23.224a5.747 5.747 0 0 1 5.747 5.75v16.587a5.754 5.754 0 0 1 -5.747 5.75H10.074l-5.923 5.923A2.43 2.43 0 0 1 0 45.835V19.29c0 -1.525 0.606 -2.988 1.683 -4.065Z" fill="url(#a)"></path>
            <path fill-rule="evenodd" clip-rule="evenodd" d="M5.75 18.404a0.882 0.882 0 0 0 -0.887 0.887V39.965l2.487 -2.487c0.456 -0.456 1.075 -0.714 1.719 -0.714h19.907a0.885 0.885 0 0 0 0.885 -0.887V19.29a0.882 0.882 0 0 0 -0.885 -0.887H5.75ZM1.683 15.226a5.754 5.754 0 0 1 4.066 -1.684h23.224a5.747 5.747 0 0 1 5.747 5.75v16.587a5.754 5.754 0 0 1 -5.747 5.75H10.074l-5.923 5.923A2.43 2.43 0 0 1 0 45.835V19.29c0 -1.525 0.606 -2.988 1.683 -4.065Z" fill="#F8B500"></path>
      </svg>